<svg xmlns="http://www.w3.org/2000/svg" xmlns:xlink="http://www.w3.org/1999/xlink" width="2000" zoomAndPan="magnify" viewBox="0 0 1500 1499.999933" height="2000" preserveAspectRatio="xMidYMid meet" version="1.0"><defs><clipPath id="a4253050db"><path d="M 0 376.488281 L 252.855469 376.488281 L 252.855469 493.609375 L 0 493.609375 Z M 0 376.488281 " clip-rule="nonzero"/></clipPath><clipPath id="674d6dec20"><path d="M 0 385.453125 C 90.800781 368.339844 172.300781 374.476562 235.015625 427.582031 C 234.410156 444.984375 240.054688 464.125 252.753906 485.226562 C 150.070312 512.558594 60.78125 466.792969 0 385.453125 Z M 0 385.453125 " clip-rule="nonzero"/></clipPath><clipPath id="f034ffd2da"><path d="M 0 0.800781 L 252.855469 0.800781 L 252.855469 117.199219 L 0 117.199219 Z M 0 0.800781 " clip-rule="nonzero"/></clipPath><clipPath id="7d79b260fd"><path d="M 0 9.453125 C 90.800781 -7.660156 172.300781 -1.523438 235.015625 51.582031 C 234.410156 68.984375 240.054688 88.125 252.753906 109.226562 C 150.070312 136.558594 60.78125 90.792969 0 9.453125 Z M 0 9.453125 " clip-rule="nonzero"/></clipPath><clipPath id="4b5415470f"><rect x="0" width="253" y="0" height="118"/></clipPath><clipPath id="03a9dff400"><path d="M 97 264.265625 L 247.75 264.265625 L 247.75 415.765625 L 97 415.765625 Z M 97 264.265625 " clip-rule="nonzero"/></clipPath><clipPath id="4c864cdd31"><path d="M 223.578125 195.726562 L 326.421875 195.726562 L 326.421875 363.800781 L 223.578125 363.800781 Z M 223.578125 195.726562 " clip-rule="nonzero"/></clipPath><clipPath id="3c98bc96b2"><path d="M 257.910156 283.773438 C 269.25 311.542969 266.695312 337.964844 255.144531 363.515625 C 246.210938 346.960938 235.464844 335.398438 223.578125 326.96875 C 231.941406 277.203125 247.703125 232.199219 276.738281 195.726562 C 302.773438 231.902344 319.1875 276.214844 326.023438 328.628906 L 311.070312 342.472656 C 305.132812 304.578125 283.804688 290.628906 257.910156 283.773438 Z M 257.910156 283.773438 " clip-rule="nonzero"/></clipPath><clipPath id="99b4269671"><path d="M 0.578125 0.726562 L 103.160156 0.726562 L 103.160156 168.601562 L 0.578125 168.601562 Z M 0.578125 0.726562 " clip-rule="nonzero"/></clipPath><clipPath id="2b45d5a6cf"><path d="M 34.910156 88.773438 C 46.25 116.542969 43.695312 142.964844 32.144531 168.515625 C 23.210938 151.960938 12.464844 140.398438 0.578125 131.96875 C 8.941406 82.203125 24.703125 37.199219 53.738281 0.726562 C 79.773438 36.902344 96.1875 81.214844 103.023438 133.628906 L 88.070312 147.472656 C 82.132812 109.578125 60.804688 95.628906 34.910156 88.773438 Z M 34.910156 88.773438 " clip-rule="nonzero"/></clipPath><clipPath id="6335dd6085"><rect x="0" width="104" y="0" height="169"/></clipPath><clipPath id="dd5ca8f5b8"><path d="M 317.304688 272 L 454.578125 272 L 454.578125 391.589844 L 317.304688 391.589844 Z M 317.304688 272 " clip-rule="nonzero"/></clipPath><clipPath id="f0f272de98"><path d="M 343.824219 374.972656 C 338.234375 364.542969 330.019531 358.003906 317.769531 353.492188 C 361.136719 310.304688 406.339844 281.183594 454.140625 272 C 453.472656 306.15625 445.570312 339.660156 428.640625 372.339844 C 405.054688 369.65625 382.191406 374.195312 360.082031 386.296875 C 351.734375 392.574219 342.84375 392.117188 335.230469 388.414062 C 339.636719 383.945312 342.011719 382.027344 343.824219 374.972656 Z M 343.824219 374.972656 " clip-rule="nonzero"/></clipPath><clipPath id="1f6356c7a2"><path d="M 0.761719 0 L 137.320312 0 L 137.320312 119.199219 L 0.761719 119.199219 Z M 0.761719 0 " clip-rule="nonzero"/></clipPath><clipPath id="f5f33ff7a6"><path d="M 26.824219 102.972656 C 21.234375 92.542969 13.019531 86.003906 0.769531 81.492188 C 44.136719 38.304688 89.339844 9.183594 137.140625 0 C 136.472656 34.15625 128.570312 67.660156 111.640625 100.339844 C 88.054688 97.65625 65.191406 102.195312 43.082031 114.296875 C 34.734375 120.574219 25.84375 120.117188 18.230469 116.414062 C 22.636719 111.945312 25.011719 110.027344 26.824219 102.972656 Z M 26.824219 102.972656 " clip-rule="nonzero"/></clipPath><clipPath id="67284df036"><rect x="0" width="138" y="0" height="120"/></clipPath><clipPath id="e2268b8389"><path d="M 287.40625 381.777344 L 543.746094 381.777344 L 543.746094 496.949219 L 287.40625 496.949219 Z M 287.40625 381.777344 " clip-rule="nonzero"/></clipPath><clipPath id="86942eedbf"><path d="M 341.660156 408.183594 C 400.402344 376.34375 468.746094 375.066406 543.726562 394.898438 C 479.976562 473.085938 385.359375 523.726562 287.40625 480.84375 C 288.242188 461.242188 313.925781 460.886719 330.210938 461.125 C 341.515625 462.652344 348.765625 457.21875 354.53125 444.722656 C 356.671875 437.234375 352.625 430.988281 345.535156 425.347656 C 352.078125 422.585938 351.640625 407.453125 341.660156 408.183594 Z M 341.660156 408.183594 " clip-rule="nonzero"/></clipPath><clipPath id="eb45d27b86"><path d="M 0.40625 0.777344 L 256.746094 0.777344 L 256.746094 115.558594 L 0.40625 115.558594 Z M 0.40625 0.777344 " clip-rule="nonzero"/></clipPath><clipPath id="7922cea5da"><path d="M 54.660156 27.183594 C 113.402344 -4.65625 181.746094 -5.933594 256.726562 13.898438 C 192.976562 92.085938 98.359375 142.726562 0.40625 99.84375 C 1.242188 80.242188 26.925781 79.886719 43.210938 80.125 C 54.515625 81.652344 61.765625 76.21875 67.53125 63.722656 C 69.671875 56.234375 65.625 49.988281 58.535156 44.347656 C 65.078125 41.585938 64.640625 26.453125 54.660156 27.183594 Z M 54.660156 27.183594 " clip-rule="nonzero"/></clipPath><clipPath id="ec58283592"><rect x="0" width="257" y="0" height="116"/></clipPath><clipPath id="95f0b18856"><path d="M 282.882812 492.097656 L 500.753906 492.097656 L 500.753906 552.175781 L 282.882812 552.175781 Z M 282.882812 492.097656 " clip-rule="nonzero"/></clipPath><clipPath id="51e5bd9995"><path d="M 282.882812 492.332031 C 365.050781 549.386719 419.390625 465.34375 500.648438 552.175781 C 418.984375 498.472656 334.015625 579.003906 282.882812 492.332031 Z M 282.882812 492.332031 " clip-rule="nonzero"/></clipPath><clipPath id="1ff700502f"><path d="M 0.882812 0.238281 L 218.753906 0.238281 L 218.753906 60.175781 L 0.882812 60.175781 Z M 0.882812 0.238281 " clip-rule="nonzero"/></clipPath><clipPath id="8554ed6c3f"><path d="M 0.882812 0.332031 C 83.050781 57.386719 137.390625 -26.65625 218.648438 60.175781 C 136.984375 6.472656 52.015625 87.003906 0.882812 0.332031 Z M 0.882812 0.332031 " clip-rule="nonzero"/></clipPath><clipPath id="b1e42ce246"><rect x="0" width="219" y="0" height="61"/></clipPath><clipPath id="ed8ca33331"><path d="M 270 493.585938 L 344.808594 493.585938 L 344.808594 1177.738281 L 270 1177.738281 Z M 270 493.585938 " clip-rule="nonzero"/></clipPath><clipPath id="070466c6d9"><path d="M 272.234375 493.585938 C 286.550781 721.363281 428.828125 923.394531 270.019531 1177.589844 C 392.550781 874.691406 262.457031 761.625 272.234375 493.585938 Z M 272.234375 493.585938 " clip-rule="nonzero"/></clipPath><clipPath id="eef335fad4"><path d="M 0 0.585938 L 74.640625 0.585938 L 74.640625 684.679688 L 0 684.679688 Z M 0 0.585938 " clip-rule="nonzero"/></clipPath><clipPath id="52b35823ee"><path d="M 2.234375 0.585938 C 16.550781 228.363281 158.828125 430.394531 0.0195312 684.589844 C 122.550781 381.691406 -7.542969 268.625 2.234375 0.585938 Z M 2.234375 0.585938 " clip-rule="nonzero"/></clipPath><clipPath id="3d962b6bd7"><rect x="0" width="75" y="0" height="685"/></clipPath><clipPath id="446c273629"><path d="M 502.058594 618.054688 L 879.792969 618.054688 L 879.792969 867.503906 L 502.058594 867.503906 Z M 502.058594 618.054688 " clip-rule="nonzero"/></clipPath><clipPath id="5d4156825c"><path d="M 530.042969 684.371094 C 525.175781 689.847656 523.191406 694.351562 525.335938 702.785156 C 532.953125 719.375 547.441406 724.585938 566.871094 721.613281 C 561.277344 701.175781 554.570312 683.507812 543.054688 677.863281 C 553.523438 673.730469 561.671875 669.667969 569.1875 662.207031 C 576.496094 677.730469 584.855469 696.71875 590.128906 714.828125 C 650.308594 674.953125 712.152344 624.296875 759.035156 618.054688 C 844.257812 620.449219 859.289062 659.359375 868.128906 722.167969 C 870.492188 738.957031 879.757812 731.582031 879.757812 731.582031 C 864.148438 745.574219 850.617188 748.769531 847.777344 734.386719 C 844.394531 712.039062 841.078125 694.238281 833.242188 687.832031 C 836.023438 684.015625 836.367188 679.464844 835.457031 674.539062 C 824.433594 650.871094 811.773438 650.402344 797.796875 668.449219 C 799.675781 676.925781 799.128906 683.457031 795.582031 687.832031 C 776.421875 703.316406 768.804688 662.617188 809.980469 651.835938 C 789.28125 634.148438 767.183594 627.988281 743.527344 634.667969 C 703.222656 648.589844 665.503906 673.351562 628.894531 702.785156 C 676.894531 699.648438 712.003906 766.027344 660.460938 803.019531 C 662.78125 761.730469 652.96875 732.257812 627.234375 718.289062 C 616.304688 711.757812 591.835938 712.847656 597.191406 730.957031 L 624.464844 799.140625 C 627.757812 806.03125 634.453125 809.238281 642.183594 811.324219 C 631.300781 816.742188 620.578125 819.386719 610.066406 818.523438 C 610.609375 840.777344 593.828125 856.265625 564.101562 866.703125 C 549.324219 869.710938 542.328125 864.066406 540.839844 852.304688 C 540.917969 833.816406 560.78125 828.699219 566.316406 848.429688 C 585.398438 849.476562 596.910156 835.550781 603.4375 812.230469 L 569.636719 729.367188 C 551.703125 733.089844 533.484375 726.292969 514.8125 710.816406 C 485.46875 690.496094 513.734375 655.054688 530.042969 684.371094 Z M 530.042969 684.371094 " clip-rule="nonzero"/></clipPath><clipPath id="97132f5591"><path d="M 0.0585938 0.0546875 L 377.792969 0.0546875 L 377.792969 249.503906 L 0.0585938 249.503906 Z M 0.0585938 0.0546875 " clip-rule="nonzero"/></clipPath><clipPath id="c3f341932b"><path d="M 28.042969 66.371094 C 23.175781 71.847656 21.191406 76.351562 23.335938 84.785156 C 30.953125 101.375 45.441406 106.585938 64.871094 103.613281 C 59.277344 83.175781 52.570312 65.507812 41.054688 59.863281 C 51.523438 55.730469 59.671875 51.667969 67.1875 44.207031 C 74.496094 59.730469 82.855469 78.71875 88.128906 96.828125 C 148.308594 56.953125 210.152344 6.296875 257.035156 0.0546875 C 342.257812 2.449219 357.289062 41.359375 366.128906 104.167969 C 368.492188 120.957031 377.757812 113.582031 377.757812 113.582031 C 362.148438 127.574219 348.617188 130.769531 345.777344 116.386719 C 342.394531 94.039062 339.078125 76.238281 331.242188 69.832031 C 334.023438 66.015625 334.367188 61.464844 333.457031 56.539062 C 322.433594 32.871094 309.773438 32.402344 295.796875 50.449219 C 297.675781 58.925781 297.128906 65.457031 293.582031 69.832031 C 274.421875 85.316406 266.804688 44.617188 307.980469 33.835938 C 287.28125 16.148438 265.183594 9.988281 241.527344 16.667969 C 201.222656 30.589844 163.503906 55.351562 126.894531 84.785156 C 174.894531 81.648438 210.003906 148.027344 158.460938 185.019531 C 160.78125 143.730469 150.96875 114.257812 125.234375 100.289062 C 114.304688 93.757812 89.835938 94.847656 95.191406 112.957031 L 122.464844 181.140625 C 125.757812 188.03125 132.453125 191.238281 140.183594 193.324219 C 129.300781 198.742188 118.578125 201.386719 108.066406 200.523438 C 108.609375 222.777344 91.828125 238.265625 62.101562 248.703125 C 47.324219 251.710938 40.328125 246.066406 38.839844 234.304688 C 38.917969 215.816406 58.78125 210.699219 64.316406 230.429688 C 83.398438 231.476562 94.910156 217.550781 101.4375 194.230469 L 67.636719 111.367188 C 49.703125 115.089844 31.484375 108.292969 12.8125 92.816406 C -16.53125 72.496094 11.734375 37.054688 28.042969 66.371094 Z M 28.042969 66.371094 " clip-rule="nonzero"/></clipPath><clipPath id="bdb59b64eb"><rect x="0" width="378" y="0" height="250"/></clipPath><clipPath id="dbb45f622d"><path d="M 690.320312 670.28125 L 782.9375 670.28125 L 782.9375 772.628906 L 690.320312 772.628906 Z M 690.320312 670.28125 " clip-rule="nonzero"/></clipPath><clipPath id="56f80ff5dc"><path d="M 722.160156 716.308594 L 766.800781 699.421875 C 772.773438 697.464844 771.644531 694.160156 768.164062 688.039062 C 754.519531 668.324219 737.839844 666.546875 719.386719 675.289062 C 680.929688 695.171875 677.117188 759.644531 729.367188 772.289062 C 763.804688 773.679688 775.542969 759.121094 782.578125 741.25 C 724.8125 778.550781 702.25 722.089844 722.160156 716.308594 Z M 722.160156 716.308594 " clip-rule="nonzero"/></clipPath><clipPath id="e979b47da5"><path d="M 0.320312 0.28125 L 92.640625 0.28125 L 92.640625 102.628906 L 0.320312 102.628906 Z M 0.320312 0.28125 " clip-rule="nonzero"/></clipPath><clipPath id="a1d4491a6a"><path d="M 32.160156 46.308594 L 76.800781 29.421875 C 82.773438 27.464844 81.644531 24.160156 78.164062 18.039062 C 64.519531 -1.675781 47.839844 -3.453125 29.386719 5.289062 C -9.070312 25.171875 -12.882812 89.644531 39.367188 102.289062 C 73.804688 103.679688 85.542969 89.121094 92.578125 71.25 C 34.8125 108.550781 12.25 52.089844 32.160156 46.308594 Z M 32.160156 46.308594 " clip-rule="nonzero"/></clipPath><clipPath id="4c08100e7e"><rect x="0" width="93" y="0" height="103"/></clipPath><clipPath id="6dbf90a37b"><path d="M 788.507812 700.542969 L 832.949219 700.542969 L 832.949219 754.839844 L 788.507812 754.839844 Z M 788.507812 700.542969 " clip-rule="nonzero"/></clipPath><clipPath id="8236a86754"><path d="M 814.367188 700.542969 C 805.203125 722.683594 812.933594 736.597656 832.777344 744.609375 C 793.996094 779.667969 765.539062 712.808594 814.367188 700.542969 Z M 814.367188 700.542969 " clip-rule="nonzero"/></clipPath><clipPath id="563d3ac19c"><path d="M 0.507812 0.542969 L 44.800781 0.542969 L 44.800781 54.839844 L 0.507812 54.839844 Z M 0.507812 0.542969 " clip-rule="nonzero"/></clipPath><clipPath id="5ef13e1c02"><path d="M 26.367188 0.542969 C 17.203125 22.683594 24.933594 36.597656 44.777344 44.609375 C 5.996094 79.667969 -22.460938 12.808594 26.367188 0.542969 Z M 26.367188 0.542969 " clip-rule="nonzero"/></clipPath><clipPath id="628968cd53"><rect x="0" width="45" y="0" height="55"/></clipPath><clipPath id="4180b04297"><path d="M 870.84375 635.363281 L 934.363281 635.363281 L 934.363281 736.945312 L 870.84375 736.945312 Z M 870.84375 635.363281 " clip-rule="nonzero"/></clipPath><clipPath id="a5cbeea0c6"><path d="M 911.640625 706.40625 L 905.535156 635.363281 C 894.703125 639.3125 883.15625 640.574219 870.84375 638.972656 C 876.402344 642.023438 881.519531 647.761719 882.640625 655.621094 L 889.578125 724.167969 C 892.257812 740.378906 917.46875 741.117188 934.117188 725.277344 C 920.203125 724.914062 912.675781 719.277344 911.640625 706.40625 Z M 911.640625 706.40625 " clip-rule="nonzero"/></clipPath><clipPath id="a49b9da972"><path d="M 0.84375 0.363281 L 64.320312 0.363281 L 64.320312 101.945312 L 0.84375 101.945312 Z M 0.84375 0.363281 " clip-rule="nonzero"/></clipPath><clipPath id="bdced22b4c"><path d="M 41.640625 71.40625 L 35.535156 0.363281 C 24.703125 4.3125 13.15625 5.574219 0.84375 3.972656 C 6.402344 7.023438 11.519531 12.761719 12.640625 20.621094 L 19.578125 89.167969 C 22.257812 105.378906 47.46875 106.117188 64.117188 90.277344 C 50.203125 89.914062 42.675781 84.277344 41.640625 71.40625 Z M 41.640625 71.40625 " clip-rule="nonzero"/></clipPath><clipPath id="015608c874"><rect x="0" width="65" y="0" height="102"/></clipPath><clipPath id="f5deedc42a"><path d="M 938.347656 625.371094 L 1022 625.371094 L 1022 729 L 938.347656 729 Z M 938.347656 625.371094 " clip-rule="nonzero"/></clipPath><clipPath id="a7b521fff6"><path d="M 978.613281 712.28125 L 973.476562 625.371094 C 962.359375 630.652344 950.570312 632.769531 938.347656 632.867188 C 944.976562 634.8125 948.996094 638.667969 949.316406 651.746094 L 953.875 714.78125 C 957.1875 745.507812 1019.507812 720.660156 1021.652344 691.734375 C 1022.808594 652.488281 985.574219 664.152344 996.105469 688.402344 C 1005.730469 688.335938 1008.324219 694.019531 1001.660156 707.285156 C 993.976562 717.488281 986.292969 720.960938 978.613281 712.28125 Z M 978.613281 712.28125 " clip-rule="nonzero"/></clipPath><clipPath id="aac907b995"><path d="M 0.347656 0.371094 L 83.679688 0.371094 L 83.679688 104 L 0.347656 104 Z M 0.347656 0.371094 " clip-rule="nonzero"/></clipPath><clipPath id="2e12d1fa0f"><path d="M 40.613281 87.28125 L 35.476562 0.371094 C 24.359375 5.652344 12.570312 7.769531 0.347656 7.867188 C 6.976562 9.8125 10.996094 13.667969 11.316406 26.746094 L 15.875 89.78125 C 19.1875 120.507812 81.507812 95.660156 83.652344 66.734375 C 84.808594 27.488281 47.574219 39.152344 58.105469 63.402344 C 67.730469 63.335938 70.324219 69.019531 63.660156 82.285156 C 55.976562 92.488281 48.292969 95.960938 40.613281 87.28125 Z M 40.613281 87.28125 " clip-rule="nonzero"/></clipPath><clipPath id="6ba1b61b67"><rect x="0" width="84" y="0" height="104"/></clipPath><clipPath id="e516b6706d"><path d="M 1025 558.125 L 1131.050781 558.125 L 1131.050781 727.363281 L 1025 727.363281 Z M 1025 558.125 " clip-rule="nonzero"/></clipPath><clipPath id="4c23fde4ce"><path d="M 1061.980469 618.011719 L 1062.113281 586.636719 C 1053.871094 593.109375 1045.085938 597.953125 1035.363281 599.988281 L 1035.640625 617.734375 L 1027.320312 618.566406 C 1024.832031 620.878906 1024.632812 623.1875 1027.320312 625.5 L 1036.195312 625.222656 L 1037.859375 706.191406 C 1039.148438 732.441406 1062.691406 731.042969 1084.71875 719.222656 C 1071.074219 717.976562 1064.074219 711.597656 1063.367188 700.367188 L 1062.535156 628.828125 C 1079.351562 628.148438 1092.585938 622.941406 1103.851562 615.238281 C 1153.585938 581.921875 1123.925781 541.425781 1102.742188 565.328125 C 1098.007812 572.359375 1099.066406 577.523438 1105.792969 580.855469 C 1117.316406 586.710938 1114.699219 595.613281 1102.191406 606.644531 C 1090.230469 614.398438 1076.902344 618.390625 1061.980469 618.011719 Z M 1061.980469 618.011719 " clip-rule="nonzero"/></clipPath><clipPath id="d9a5415061"><path d="M 0.28125 0.125 L 106.050781 0.125 L 106.050781 169.363281 L 0.28125 169.363281 Z M 0.28125 0.125 " clip-rule="nonzero"/></clipPath><clipPath id="914ef85dc6"><path d="M 36.980469 60.011719 L 37.113281 28.636719 C 28.871094 35.109375 20.085938 39.953125 10.363281 41.988281 L 10.640625 59.734375 L 2.320312 60.566406 C -0.167969 62.878906 -0.367188 65.1875 2.320312 67.5 L 11.195312 67.222656 L 12.859375 148.191406 C 14.148438 174.441406 37.691406 173.042969 59.71875 161.222656 C 46.074219 159.976562 39.074219 153.597656 38.367188 142.367188 L 37.535156 70.828125 C 54.351562 70.148438 67.585938 64.941406 78.851562 57.238281 C 128.585938 23.921875 98.925781 -16.574219 77.742188 7.328125 C 73.007812 14.359375 74.066406 19.523438 80.792969 22.855469 C 92.316406 28.710938 89.699219 37.613281 77.191406 48.644531 C 65.230469 56.398438 51.902344 60.390625 36.980469 60.011719 Z M 36.980469 60.011719 " clip-rule="nonzero"/></clipPath><clipPath id="63f307f554"><rect x="0" width="107" y="0" height="170"/></clipPath><clipPath id="c0baa30e4b"><path d="M 361.898438 626.234375 L 1499.648438 626.234375 L 1499.648438 1019 L 361.898438 1019 Z M 361.898438 626.234375 " clip-rule="nonzero"/></clipPath><clipPath id="52d79a055f"><path d="M 44.648438 493.648438 L 264.605469 493.648438 L 264.605469 545.132812 L 44.648438 545.132812 Z M 44.648438 493.648438 " clip-rule="nonzero"/></clipPath><clipPath id="e1c6dc2171"><path d="M 264.558594 493.847656 C 180.238281 547.640625 129.230469 461.550781 44.648438 545.132812 C 128.339844 494.664062 210.085938 578.445312 264.558594 493.847656 Z M 264.558594 493.847656 " clip-rule="nonzero"/></clipPath><clipPath id="2dd696dcb2"><path d="M 0.648438 0.679688 L 220.605469 0.679688 L 220.605469 52.132812 L 0.648438 52.132812 Z M 0.648438 0.679688 " clip-rule="nonzero"/></clipPath><clipPath id="2d46b43c24"><path d="M 220.558594 0.847656 C 136.238281 54.640625 85.230469 -31.449219 0.648438 52.132812 C 84.339844 1.664062 166.085938 85.445312 220.558594 0.847656 Z M 220.558594 0.847656 " clip-rule="nonzero"/></clipPath><clipPath id="178931cebc"><rect x="0" width="221" y="0" height="53"/></clipPath><clipPath id="4bb65e04df"><path d="M 359.597656 630.859375 L 413.859375 630.859375 L 413.859375 1129.191406 L 359.597656 1129.191406 Z M 359.597656 630.859375 " clip-rule="nonzero"/></clipPath><clipPath id="4f81c9ca8f"><path d="M 361.210938 630.859375 C 371.636719 796.765625 475.273438 943.925781 359.597656 1129.074219 C 448.847656 908.449219 354.085938 826.09375 361.210938 630.859375 Z M 361.210938 630.859375 " clip-rule="nonzero"/></clipPath><clipPath id="eb0a0e53cc"><path d="M 0.597656 0.859375 L 54.859375 0.859375 L 54.859375 499 L 0.597656 499 Z M 0.597656 0.859375 " clip-rule="nonzero"/></clipPath><clipPath id="fd3ed6a99b"><path d="M 2.210938 0.859375 C 12.636719 166.765625 116.273438 313.925781 0.597656 499.074219 C 89.847656 278.449219 -4.914062 196.09375 2.210938 0.859375 Z M 2.210938 0.859375 " clip-rule="nonzero"/></clipPath><clipPath id="473f282847"><rect x="0" width="55" y="0" height="500"/></clipPath><clipPath id="d3db4a845b"><path d="M 477.554688 713.824219 L 515.339844 713.824219 L 515.339844 1059.472656 L 477.554688 1059.472656 Z M 477.554688 713.824219 " clip-rule="nonzero"/></clipPath><clipPath id="376dd30016"><path d="M 478.820312 713.824219 C 486.050781 828.902344 557.9375 930.972656 477.703125 1059.398438 C 539.609375 906.367188 473.878906 849.246094 478.820312 713.824219 Z M 478.820312 713.824219 " clip-rule="nonzero"/></clipPath><clipPath id="1b1dbea658"><path d="M 0.601562 0.824219 L 38.339844 0.824219 L 38.339844 346.472656 L 0.601562 346.472656 Z M 0.601562 0.824219 " clip-rule="nonzero"/></clipPath><clipPath id="d98040a05e"><path d="M 1.820312 0.824219 C 9.050781 115.902344 80.9375 217.972656 0.703125 346.398438 C 62.609375 193.367188 -3.121094 136.246094 1.820312 0.824219 Z M 1.820312 0.824219 " clip-rule="nonzero"/></clipPath><clipPath id="7f38425998"><rect x="0" width="39" y="0" height="347"/></clipPath><clipPath id="4e961e3328"><path d="M 551.371094 833.507812 L 1081.621094 833.507812 L 1081.621094 997.757812 L 551.371094 997.757812 Z M 551.371094 833.507812 " clip-rule="nonzero"/></clipPath></defs><g clip-path="url(#a4253050db)"><g clip-path="url(#674d6dec20)"><g transform="matrix(1, 0, 0, 1, 0, 376)"><g clip-path="url(#4b5415470f)"><g clip-path="url(#f034ffd2da)"><g clip-path="url(#7d79b260fd)"><path fill="#8d0a32" d="M 0 0.941406 L 252.855469 0.941406 L 252.855469 117.15625 L 0 117.15625 Z M 0 0.941406 " fill-opacity="1" fill-rule="nonzero"/></g></g></g></g></g></g><g clip-path="url(#03a9dff400)"><path fill="#8d0a32" d="M 122.460938 366.75 C 101.40625 327.808594 94.960938 294.347656 97.539062 264.265625 C 159.664062 284.878906 212.085938 318.4375 247.628906 374.503906 C 237.632812 386.460938 235.582031 402.386719 235.71875 415.496094 C 206.328125 387.242188 168.09375 368.417969 122.460938 366.75 " fill-opacity="1" fill-rule="evenodd"/></g><g clip-path="url(#4c864cdd31)"><g clip-path="url(#3c98bc96b2)"><g transform="matrix(1, 0, 0, 1, 223, 195)"><g clip-path="url(#6335dd6085)"><g clip-path="url(#99b4269671)"><g clip-path="url(#2b45d5a6cf)"><path fill="#8d0a32" d="M 0.578125 0.726562 L 103.023438 0.726562 L 103.023438 168.398438 L 0.578125 168.398438 Z M 0.578125 0.726562 " fill-opacity="1" fill-rule="nonzero"/></g></g></g></g></g></g><g clip-path="url(#dd5ca8f5b8)"><g clip-path="url(#f0f272de98)"><g transform="matrix(1, 0, 0, 1, 317, 272)"><g clip-path="url(#67284df036)"><g clip-path="url(#1f6356c7a2)"><g clip-path="url(#f5f33ff7a6)"><path fill="#8d0a32" d="M 0.769531 0 L 137.113281 0 L 137.113281 119.125 L 0.769531 119.125 Z M 0.769531 0 " fill-opacity="1" fill-rule="nonzero"/></g></g></g></g></g></g><g clip-path="url(#e2268b8389)"><g clip-path="url(#86942eedbf)"><g transform="matrix(1, 0, 0, 1, 287, 381)"><g clip-path="url(#ec58283592)"><g clip-path="url(#eb45d27b86)"><g clip-path="url(#7922cea5da)"><path fill="#8d0a32" d="M 0.40625 0.777344 L 256.746094 0.777344 L 256.746094 115.5 L 0.40625 115.5 Z M 0.40625 0.777344 " fill-opacity="1" fill-rule="nonzero"/></g></g></g></g></g></g><g clip-path="url(#95f0b18856)"><g clip-path="url(#51e5bd9995)"><g transform="matrix(1, 0, 0, 1, 282, 492)"><g clip-path="url(#b1e42ce246)"><g clip-path="url(#1ff700502f)"><g clip-path="url(#8554ed6c3f)"><path fill="#8d0a32" d="M 0.882812 0.332031 L 218.753906 0.332031 L 218.753906 60.175781 L 0.882812 60.175781 Z M 0.882812 0.332031 " fill-opacity="1" fill-rule="nonzero"/></g></g></g></g></g></g><g clip-path="url(#ed8ca33331)"><g clip-path="url(#070466c6d9)"><g transform="matrix(1, 0, 0, 1, 270, 493)"><g clip-path="url(#3d962b6bd7)"><g clip-path="url(#eef335fad4)"><g clip-path="url(#52b35823ee)"><path fill="#8d0a32" d="M 0.0195312 0.585938 L 74.515625 0.585938 L 74.515625 684.449219 L 0.0195312 684.449219 Z M 0.0195312 0.585938 " fill-opacity="1" fill-rule="nonzero"/></g></g></g></g></g></g><g clip-path="url(#446c273629)"><g clip-path="url(#5d4156825c)"><g transform="matrix(1, 0, 0, 1, 502, 618)"><g clip-path="url(#bdb59b64eb)"><g clip-path="url(#97132f5591)"><g clip-path="url(#c3f341932b)"><path fill="#8d0a32" d="M 0.0585938 0.0546875 L 377.792969 0.0546875 L 377.792969 249.503906 L 0.0585938 249.503906 Z M 0.0585938 0.0546875 " fill-opacity="1" fill-rule="nonzero"/></g></g></g></g></g></g><g clip-path="url(#dbb45f622d)"><g clip-path="url(#56f80ff5dc)"><g transform="matrix(1, 0, 0, 1, 690, 670)"><g clip-path="url(#4c08100e7e)"><g clip-path="url(#e979b47da5)"><g clip-path="url(#a1d4491a6a)"><path fill="#8d0a32" d="M 0.320312 0.28125 L 92.578125 0.28125 L 92.578125 102.265625 L 0.320312 102.265625 Z M 0.320312 0.28125 " fill-opacity="1" fill-rule="nonzero"/></g></g></g></g></g></g><g clip-path="url(#6dbf90a37b)"><g clip-path="url(#8236a86754)"><g transform="matrix(1, 0, 0, 1, 788, 700)"><g clip-path="url(#628968cd53)"><g clip-path="url(#563d3ac19c)"><g clip-path="url(#5ef13e1c02)"><path fill="#8d0a32" d="M 0.507812 0.542969 L 44.777344 0.542969 L 44.777344 54.664062 L 0.507812 54.664062 Z M 0.507812 0.542969 " fill-opacity="1" fill-rule="nonzero"/></g></g></g></g></g></g><g clip-path="url(#4180b04297)"><g clip-path="url(#a5cbeea0c6)"><g transform="matrix(1, 0, 0, 1, 870, 635)"><g clip-path="url(#015608c874)"><g clip-path="url(#a49b9da972)"><g clip-path="url(#bdced22b4c)"><path fill="#8d0a32" d="M 0.84375 0.363281 L 64.117188 0.363281 L 64.117188 101.699219 L 0.84375 101.699219 Z M 0.84375 0.363281 " fill-opacity="1" fill-rule="nonzero"/></g></g></g></g></g></g><g clip-path="url(#f5deedc42a)"><g clip-path="url(#a7b521fff6)"><g transform="matrix(1, 0, 0, 1, 938, 625)"><g clip-path="url(#6ba1b61b67)"><g clip-path="url(#aac907b995)"><g clip-path="url(#2e12d1fa0f)"><path fill="#8d0a32" d="M 0.347656 0.371094 L 83.675781 0.371094 L 83.675781 103.878906 L 0.347656 103.878906 Z M 0.347656 0.371094 " fill-opacity="1" fill-rule="nonzero"/></g></g></g></g></g></g><g clip-path="url(#e516b6706d)"><g clip-path="url(#4c23fde4ce)"><g transform="matrix(1, 0, 0, 1, 1025, 558)"><g clip-path="url(#63f307f554)"><g clip-path="url(#d9a5415061)"><g clip-path="url(#914ef85dc6)"><path fill="#8d0a32" d="M 0.378906 0.125 L 106.050781 0.125 L 106.050781 169.363281 L 0.378906 169.363281 Z M 0.378906 0.125 " fill-opacity="1" fill-rule="nonzero"/></g></g></g></g></g></g><g clip-path="url(#c0baa30e4b)"><path fill="#8d0a32" d="M 1150.695312 697.753906 C 1137.449219 665.699219 1131.042969 641.117188 1134.03125 626.789062 C 1127.941406 629.722656 1113.207031 628.480469 1096.40625 626.234375 C 1108.054688 625.820312 1123.140625 686.351562 1136.117188 731.238281 C 1132.242188 737.332031 1127.945312 747.539062 1124.070312 753.632812 C 813.585938 735.261719 577.835938 858.34375 361.910156 1018.949219 C 577.542969 875.441406 812.039062 771.335938 1095.574219 769.695312 C 1108.972656 823.726562 1172.125 831.578125 1215.363281 815.804688 C 1307.476562 772.613281 1342.765625 790.640625 1421.460938 813.453125 C 1388.234375 799.179688 1353.996094 788.027344 1317.445312 784.09375 C 1358.894531 760.890625 1410.691406 773.355469 1433.636719 814.5625 C 1464.765625 808.753906 1495.328125 840.195312 1468.078125 853.75 C 1472.921875 889.667969 1516.773438 866.65625 1491.179688 834.5 C 1440.847656 765.523438 1380.691406 740.964844 1299.738281 775.789062 C 1243.914062 766.464844 1187.925781 757.953125 1130.984375 754.183594 L 1189.632812 638.421875 C 1195.722656 633.683594 1198.144531 630.394531 1192.054688 630.457031 L 1181.679688 630.59375 C 1177.890625 630.46875 1178.941406 634.941406 1181.402344 634.886719 L 1183.339844 635.164062 C 1173.542969 658.789062 1162.890625 680.222656 1150.695312 697.753906 Z M 1277.070312 785.058594 C 1232.589844 774.789062 1182.765625 768.925781 1125.742188 768.996094 C 1099.085938 791.328125 1134.839844 812.207031 1159.773438 814.695312 C 1196.476562 820.421875 1247.144531 796.179688 1277.070312 785.058594 " fill-opacity="1" fill-rule="evenodd"/></g><g clip-path="url(#52d79a055f)"><g clip-path="url(#e1c6dc2171)"><g transform="matrix(1, 0, 0, 1, 44, 493)"><g clip-path="url(#178931cebc)"><g clip-path="url(#2dd696dcb2)"><g clip-path="url(#2d46b43c24)"><path fill="#8d0a32" d="M 0.648438 0.847656 L 220.605469 0.847656 L 220.605469 52.132812 L 0.648438 52.132812 Z M 0.648438 0.847656 " fill-opacity="1" fill-rule="nonzero"/></g></g></g></g></g></g><g clip-path="url(#4bb65e04df)"><g clip-path="url(#4f81c9ca8f)"><g transform="matrix(1, 0, 0, 1, 359, 630)"><g clip-path="url(#473f282847)"><g clip-path="url(#eb0a0e53cc)"><g clip-path="url(#fd3ed6a99b)"><path fill="#8d0a32" d="M 0.597656 0.859375 L 54.859375 0.859375 L 54.859375 498.976562 L 0.597656 498.976562 Z M 0.597656 0.859375 " fill-opacity="1" fill-rule="nonzero"/></g></g></g></g></g></g><g clip-path="url(#d3db4a845b)"><g clip-path="url(#376dd30016)"><g transform="matrix(1, 0, 0, 1, 477, 713)"><g clip-path="url(#7f38425998)"><g clip-path="url(#1b1dbea658)"><g clip-path="url(#d98040a05e)"><path fill="#8d0a32" d="M 0.703125 0.824219 L 38.339844 0.824219 L 38.339844 346.324219 L 0.703125 346.324219 Z M 0.703125 0.824219 " fill-opacity="1" fill-rule="nonzero"/></g></g></g></g></g></g><g clip-path="url(#4e961e3328)"><path fill="#8d0a32" d="M 557.714844 990.34375 L 563.824219 986.558594 C 565.261719 988.515625 566.804688 989.707031 568.472656 990.140625 C 570.144531 990.574219 571.976562 990.296875 573.96875 989.320312 C 576.082031 988.285156 577.453125 987.058594 578.085938 985.636719 C 578.714844 984.21875 578.742188 982.902344 578.152344 981.703125 C 577.777344 980.929688 577.226562 980.390625 576.511719 980.0625 C 575.800781 979.742188 574.78125 979.660156 573.46875 979.816406 C 572.566406 979.917969 570.589844 980.304688 567.527344 980.957031 C 563.578125 981.800781 560.589844 981.929688 558.542969 981.34375 C 555.667969 980.523438 553.597656 978.816406 552.332031 976.230469 C 551.515625 974.566406 551.222656 972.773438 551.445312 970.863281 C 551.675781 968.953125 552.484375 967.191406 553.878906 965.566406 C 555.277344 963.9375 557.214844 962.519531 559.71875 961.289062 C 563.792969 959.292969 567.308594 958.6875 570.253906 959.496094 C 573.203125 960.296875 575.460938 962.183594 577.054688 965.160156 L 570.566406 968.625 C 569.457031 967.078125 568.265625 966.164062 566.988281 965.878906 C 565.710938 965.589844 564.148438 965.894531 562.308594 966.796875 C 560.417969 967.726562 559.121094 968.851562 558.4375 970.164062 C 558 971.011719 557.980469 971.859375 558.398438 972.707031 C 558.773438 973.484375 559.425781 973.984375 560.34375 974.207031 C 561.515625 974.507812 563.882812 974.253906 567.453125 973.445312 C 571.011719 972.632812 573.753906 972.261719 575.675781 972.324219 C 577.605469 972.382812 579.34375 972.898438 580.894531 973.875 C 582.449219 974.859375 583.730469 976.375 584.734375 978.429688 C 585.648438 980.300781 585.992188 982.304688 585.75 984.449219 C 585.511719 986.589844 584.640625 988.519531 583.132812 990.242188 C 581.625 991.96875 579.453125 993.523438 576.625 994.910156 C 572.503906 996.929688 568.875 997.53125 565.734375 996.710938 C 562.597656 995.894531 559.929688 993.765625 557.714844 990.34375 Z M 594.945312 985.101562 L 579.835938 952.082031 L 604.265625 940.890625 L 606.816406 946.472656 L 589.074219 954.601562 L 592.429688 961.933594 L 608.925781 954.375 L 611.480469 959.957031 L 594.980469 967.515625 L 599.074219 976.460938 L 617.464844 968.039062 L 620.015625 973.617188 Z M 641.78125 949.554688 L 649.164062 948.777344 C 649.726562 952.882812 649.21875 956.324219 647.648438 959.109375 C 646.078125 961.882812 643.5 964.035156 639.917969 965.5625 C 635.480469 967.453125 631.191406 967.492188 627.039062 965.679688 C 622.898438 963.863281 619.699219 960.324219 617.460938 955.0625 C 615.089844 949.5 614.691406 944.5625 616.246094 940.261719 C 617.804688 935.957031 620.925781 932.808594 625.601562 930.816406 C 629.691406 929.074219 633.523438 928.871094 637.105469 930.203125 C 639.238281 930.984375 641.246094 932.554688 643.148438 934.910156 L 637.160156 939.339844 C 636.027344 937.78125 634.617188 936.765625 632.941406 936.296875 C 631.257812 935.832031 629.519531 935.980469 627.730469 936.742188 C 625.253906 937.800781 623.617188 939.542969 622.835938 941.980469 C 622.046875 944.414062 622.5 947.621094 624.195312 951.601562 C 625.988281 955.816406 628.03125 958.5 630.308594 959.644531 C 632.601562 960.792969 634.957031 960.84375 637.386719 959.808594 C 639.179688 959.042969 640.484375 957.8125 641.289062 956.121094 C 642.09375 954.425781 642.265625 952.242188 641.78125 949.554688 Z M 659.371094 956.683594 L 646.058594 922.898438 L 660.414062 917.234375 C 664.023438 915.8125 666.765625 915.082031 668.640625 915.042969 C 670.523438 915 672.253906 915.5625 673.84375 916.722656 C 675.441406 917.894531 676.632812 919.46875 677.417969 921.464844 C 678.421875 924.003906 678.507812 926.386719 677.671875 928.625 C 676.839844 930.863281 675.03125 932.773438 672.246094 934.371094 C 674.050781 934.652344 675.632812 935.117188 676.992188 935.769531 C 678.359375 936.421875 680.367188 937.746094 683.019531 939.734375 L 689.734375 944.699219 L 681.585938 947.917969 L 673.792969 942.46875 C 671.007812 940.539062 669.15625 939.367188 668.234375 938.9375 C 667.324219 938.515625 666.453125 938.316406 665.628906 938.347656 C 664.796875 938.382812 663.601562 938.710938 662.03125 939.332031 L 660.648438 939.878906 L 666.207031 953.984375 Z M 658.527344 934.496094 L 663.574219 932.507812 C 666.84375 931.21875 668.820312 930.273438 669.53125 929.675781 C 670.230469 929.078125 670.6875 928.347656 670.875 927.488281 C 671.074219 926.628906 670.96875 925.691406 670.566406 924.675781 C 670.117188 923.535156 669.453125 922.742188 668.570312 922.277344 C 667.6875 921.816406 666.65625 921.710938 665.484375 921.96875 C 664.894531 922.105469 663.222656 922.722656 660.464844 923.8125 L 655.144531 925.910156 Z M 693.488281 943.410156 L 681.105469 909.277344 L 706.359375 900.105469 L 708.449219 905.875 L 690.105469 912.539062 L 692.855469 920.117188 L 709.914062 913.921875 L 712.007812 919.691406 L 694.945312 925.886719 L 698.304688 935.136719 L 717.316406 928.230469 L 719.40625 934 Z M 733.082031 929.503906 L 723.589844 900.863281 L 713.390625 904.246094 L 711.460938 898.421875 L 738.785156 889.351562 L 740.714844 895.179688 L 730.566406 898.546875 L 740.058594 927.1875 Z M 749.546875 911.769531 L 756.183594 909.03125 C 757.285156 911.195312 758.613281 912.625 760.191406 913.324219 C 761.769531 914.023438 763.621094 914.046875 765.75 913.40625 C 768 912.730469 769.554688 911.742188 770.40625 910.441406 C 771.261719 909.144531 771.5 907.855469 771.117188 906.574219 C 770.867188 905.75 770.414062 905.125 769.761719 904.6875 C 769.113281 904.257812 768.117188 904.007812 766.796875 903.949219 C 765.890625 903.902344 763.878906 903.960938 760.746094 904.109375 C 756.71875 904.296875 753.742188 903.9375 751.824219 903.023438 C 749.117188 901.75 747.355469 899.726562 746.523438 896.96875 C 745.992188 895.195312 745.992188 893.375 746.519531 891.53125 C 747.058594 889.683594 748.148438 888.074219 749.789062 886.699219 C 751.429688 885.320312 753.574219 884.234375 756.246094 883.429688 C 760.589844 882.121094 764.15625 882.097656 766.929688 883.375 C 769.710938 884.648438 771.632812 886.875 772.714844 890.074219 L 765.75 892.433594 C 764.914062 890.726562 763.886719 889.632812 762.671875 889.140625 C 761.457031 888.648438 759.863281 888.695312 757.90625 889.285156 C 755.886719 889.894531 754.425781 890.792969 753.539062 891.976562 C 752.964844 892.742188 752.808594 893.574219 753.082031 894.480469 C 753.332031 895.304688 753.890625 895.90625 754.761719 896.28125 C 755.871094 896.765625 758.246094 896.898438 761.894531 896.683594 C 765.539062 896.460938 768.3125 896.542969 770.195312 896.914062 C 772.089844 897.289062 773.71875 898.078125 775.089844 899.296875 C 776.464844 900.515625 777.480469 902.222656 778.140625 904.417969 C 778.738281 906.410156 778.75 908.445312 778.164062 910.515625 C 777.582031 912.589844 776.410156 914.355469 774.640625 915.808594 C 772.871094 917.265625 770.472656 918.449219 767.457031 919.355469 C 763.066406 920.675781 759.386719 920.679688 756.421875 919.359375 C 753.460938 918.042969 751.171875 915.507812 749.546875 911.769531 Z M 794.890625 892.199219 C 793.976562 888.613281 793.746094 885.460938 794.199219 882.742188 C 794.535156 880.746094 795.222656 878.855469 796.242188 877.078125 C 797.261719 875.300781 798.507812 873.855469 799.972656 872.738281 C 801.933594 871.253906 804.34375 870.140625 807.210938 869.414062 C 812.398438 868.089844 816.953125 868.644531 820.890625 871.070312 C 824.824219 873.5 827.523438 877.585938 828.984375 883.328125 C 830.433594 889.023438 830.019531 893.871094 827.753906 897.871094 C 825.488281 901.875 821.761719 904.535156 816.597656 905.855469 C 811.367188 907.1875 806.792969 906.65625 802.890625 904.238281 C 798.988281 901.832031 796.324219 897.816406 794.890625 892.199219 Z M 802.148438 890.097656 C 803.164062 894.082031 804.855469 896.871094 807.226562 898.464844 C 809.589844 900.050781 812.195312 900.488281 815.027344 899.765625 C 817.871094 899.039062 819.933594 897.421875 821.238281 894.917969 C 822.535156 892.40625 822.664062 889.113281 821.621094 885.023438 C 820.59375 880.984375 818.941406 878.195312 816.660156 876.667969 C 814.382812 875.125 811.78125 874.738281 808.84375 875.488281 C 805.914062 876.234375 803.804688 877.84375 802.523438 880.308594 C 801.242188 882.78125 801.113281 886.039062 802.148438 890.097656 Z M 839.066406 899.765625 L 831.117188 864.335938 L 855.445312 858.867188 L 856.789062 864.855469 L 839.628906 868.710938 L 841.519531 877.121094 L 856.351562 873.789062 L 857.699219 879.777344 L 842.863281 883.113281 L 846.242188 898.15625 Z M 876.726562 854.757812 L 891.007812 852.183594 C 893.84375 851.675781 895.96875 851.414062 897.398438 851.398438 C 898.839844 851.386719 900.167969 851.65625 901.398438 852.195312 C 902.628906 852.75 903.71875 853.574219 904.675781 854.679688 C 905.628906 855.792969 906.246094 857.121094 906.523438 858.664062 C 906.820312 860.324219 906.648438 861.945312 906 863.496094 C 905.355469 865.058594 904.320312 866.316406 902.90625 867.292969 C 905.191406 867.542969 907.046875 868.324219 908.496094 869.640625 C 909.933594 870.964844 910.839844 872.65625 911.214844 874.730469 C 911.503906 876.359375 911.414062 878.007812 910.9375 879.683594 C 910.453125 881.359375 909.644531 882.777344 908.5 883.933594 C 907.355469 885.085938 905.847656 885.941406 903.964844 886.5 C 902.789062 886.839844 899.902344 887.449219 895.308594 888.308594 L 883.144531 890.5 Z M 885.023438 859.394531 L 886.503906 867.632812 L 891.226562 866.78125 C 894.027344 866.277344 895.769531 865.921875 896.433594 865.714844 C 897.640625 865.355469 898.535156 864.753906 899.117188 863.917969 C 899.695312 863.085938 899.882812 862.097656 899.671875 860.949219 C 899.472656 859.84375 899.007812 859.007812 898.273438 858.429688 C 897.542969 857.847656 896.566406 857.59375 895.339844 857.664062 C 894.613281 857.714844 892.550781 858.039062 889.167969 858.652344 Z M 887.574219 873.570312 L 889.292969 883.15625 L 895.980469 881.953125 C 898.574219 881.484375 900.214844 881.113281 900.886719 880.847656 C 901.921875 880.453125 902.710938 879.820312 903.25 878.945312 C 903.785156 878.058594 903.945312 876.992188 903.71875 875.71875 C 903.523438 874.636719 903.101562 873.777344 902.445312 873.121094 C 901.792969 872.464844 900.9375 872.050781 899.894531 871.886719 C 898.851562 871.722656 896.683594 871.929688 893.402344 872.523438 Z M 919.21875 884.269531 L 913.824219 848.359375 L 940.390625 844.367188 L 941.300781 850.433594 L 922.003906 853.335938 L 923.199219 861.3125 L 941.144531 858.613281 L 942.054688 864.683594 L 924.109375 867.378906 L 925.574219 877.109375 L 945.574219 874.101562 L 946.484375 880.171875 Z M 948.324219 843.445312 L 955.621094 842.5625 L 957.984375 862.097656 C 958.359375 865.207031 958.695312 867.199219 958.980469 868.09375 C 959.472656 869.53125 960.34375 870.632812 961.609375 871.382812 C 962.882812 872.140625 964.519531 872.394531 966.535156 872.152344 C 968.574219 871.902344 970.0625 871.296875 971.003906 870.320312 C 971.941406 869.347656 972.4375 868.242188 972.496094 866.980469 C 972.554688 865.722656 972.417969 863.671875 972.074219 860.816406 L 969.660156 840.863281 L 976.957031 839.980469 L 979.25 858.9375 C 979.773438 863.265625 979.949219 866.351562 979.773438 868.1875 C 979.59375 870.023438 979.054688 871.621094 978.148438 872.984375 C 977.246094 874.34375 975.957031 875.488281 974.285156 876.429688 C 972.601562 877.375 970.347656 878.023438 967.507812 878.367188 C 964.078125 878.785156 961.429688 878.703125 959.5625 878.121094 C 957.699219 877.535156 956.175781 876.671875 954.988281 875.523438 C 953.800781 874.375 952.96875 873.125 952.472656 871.765625 C 951.746094 869.757812 951.140625 866.734375 950.65625 862.699219 Z M 1021.613281 872.417969 L 1013.730469 873.144531 L 1009.851562 865.199219 L 995.359375 866.53125 L 993.113281 875.042969 L 985.375 875.757812 L 996.078125 838.300781 L 1003.808594 837.589844 Z M 1006.917969 859.304688 L 1000.664062 846.386719 L 997.015625 860.21875 Z M 1029.933594 872.152344 L 1028.023438 842.039062 L 1017.300781 842.71875 L 1016.910156 836.597656 L 1045.640625 834.769531 L 1046.03125 840.894531 L 1035.359375 841.570312 L 1037.265625 871.691406 Z M 1062.222656 870.527344 L 1061.683594 855.253906 L 1047.644531 834.703125 L 1056.230469 834.402344 L 1065.3125 848.46875 L 1073.15625 833.804688 L 1081.582031 833.507812 L 1069.027344 855.046875 L 1069.5625 870.269531 Z M 1062.222656 870.527344 " fill-opacity="1" fill-rule="nonzero"/></g></svg>